# xmcd
#
# Track frame offsets:
#	150
#	5109
#	10157
#	15173
#	20927
#	52504
#	74880
#	90621
#	101995
#	112557
#	131684
#	149637
#	158779
#	166588
#	172229
#	196830
#	208128
#	231247
#	254828
#
# Disc length: 3936 seconds
#
# Revision: 0
# Processed by: cddbd v1.5.2PL0 Copyright (c) Steve Scherf et al.
# Submitted via: EasyCDDAExtractor 16.0.6.1
#
DISCID=0a0f5e13
DTITLE=Δήμου Αλέκος - Εκκλησιαστικοί Ύμνοι συνοδ. εκκλησ. οργάνων
DYEAR=2001
DGENRE=Βυζ. Εκκλησιαστική
TTITLE0=Τα πάθη τα σεπτά [ήχος α', όργ. Άγγελος Αβράμης]
TTITLE1=Τω Τάφω Σου Σωτήρ [ήχος α', όργ. Άγγελος Αβράμης]
TTITLE2=Ότε κατήλθες τω θανάτω [ήχος β', όργ. Άγγελος Αβράμης]
TTITLE3=Εκ γης ανατείλας [ήχος δ', όργ. Άγγελος Αβράμης]
TTITLE4=Η ζωή εν τάφω [ήχος α', όργ. Άγγελος Αβράμης]
TTITLE5=Άξιον Εστί [ήχος πλάγιος α', όργ. Άγγελος Αβράμης]
TTITLE6=Αι γενεαί πάσαι [ήχος γ', όργ. Άγγελος Αβράμης]
TTITLE7=Δεύτε λάβετε φως [ήχος πλάγιος α', όργ. Άγγελος Αβράμης]
TTITLE8=Δεύτε πώμα ποίωμεν [ήχος πλάγιος α', όργ. Άγγελος Αβράμης]
TTITLE9=Αυτή η κλητή και αγία ημέρα [ήχος πλάγιος α', όργ. Άγγελος Αβράμης]
TTITLE10=Άγγελος εβόα [ήχος πλάγιος α', όργ. Άγγελος Αβράμης]
TTITLE11=Άγιος Κύριος [ήχος β', όργ. Άγγελος Αβράμης]
TTITLE12=Πάσα πνοή ενεσάτο τω Κυρίω [ήχος α', όργ. Άγγελος Αβράμης]
TTITLE13=Ενοίτε αυτώ τω Κυρίω [ήχος α', όργ. Άγγελος Αβράμης]
TTITLE14=Υμνούμεν Σου Χριστέ [ήχος α', όργ. Άγγελος Αβράμης]
TTITLE15=Πάσα πνοή ενεσάτω τω Κυρίω [ήχος πλάγιος α', όργ. Άγγελος Αβράμης]
TTITLE16=Αναστήτω ο Κύριος [ήχος πλάγιος α', όργ. Άγγελος Αβράμης]
TTITLE17=Δόξα Πατρί (Δοξαστικό) [ήχος πλάγιος α', όργ. Άγγελος Αβράμης]
TTITLE18=Όσοι εις Χριστόν [ήχος α', όργ. Άγγελος Αβράμης]
EXTD=
EXTT0=
EXTT1=
EXTT2=
EXTT3=
EXTT4=
EXTT5=
EXTT6=
EXTT7=
EXTT8=
EXTT9=
EXTT10=
EXTT11=
EXTT12=
EXTT13=
EXTT14=
EXTT15=
EXTT16=
EXTT17=
EXTT18=
PLAYORDER=
